<svg xmlns="http://www.w3.org/2000/svg" viewBox="0 0 800 500" width="100%" height="100%">
  <defs>
    <linearGradient id="gradLeftBubble" x1="0%" y1="0%" x2="0%" y2="100%">
      <stop offset="0%" stop-color="#5BF55D" />
      <stop offset="100%" stop-color="#0CA678" />
    </linearGradient>
    
    <linearGradient id="gradRightBubble" x1="0%" y1="100%" x2="100%" y2="0%">
      <stop offset="0%" stop-color="#0CA678" />
      <stop offset="100%" stop-color="#0077FF" />
    </linearGradient>

    <linearGradient id="gradCheckLight" x1="0%" y1="0%" x2="100%" y2="100%">
      <stop offset="0%" stop-color="#73F26D" />
      <stop offset="100%" stop-color="#20C997" />
    </linearGradient>

    <linearGradient id="gradCheckDark" x1="0%" y1="0%" x2="100%" y2="100%">
      <stop offset="0%" stop-color="#20C997" />
      <stop offset="100%" stop-color="#0077FF" />
    </linearGradient>
    
    <linearGradient id="gradTextGreen" x1="0%" y1="0%" x2="100%" y2="0%">
      <stop offset="0%" stop-color="#28A745" />
      <stop offset="100%" stop-color="#128C7E" />
    </linearGradient>
  </defs>

  <g transform="translate(400, 200)">
    
    <path d="M -20 -95 A 95 95 0 0 0 -50 80" fill="none" stroke="url(#gradLeftBubble)" stroke-width="18" stroke-linecap="round" />
    
    <path d="M -50 80 A 95 95 0 0 0 85 45" fill="none" stroke="url(#gradRightBubble)" stroke-width="18" stroke-linecap="round" />
    
    <path d="M -48 83 L -90 125 L -20 92 Z" fill="#0CA678" />

    <path d="M -35 5 L -5 35 L 55 -55" fill="none" stroke="url(#gradCheckLight)" stroke-width="20" stroke-linecap="round" stroke-linejoin="round" />
    
    <path d="M -15 25 L 15 55 L 75 -35" fill="none" stroke="url(#gradCheckDark)" stroke-width="20" stroke-linecap="round" stroke-linejoin="round" opacity="0.9" />

    <path d="M 65 -75 A 35 35 0 0 1 95 -45" fill="none" stroke="#5BF55D" stroke-width="12" stroke-linecap="round" />
    
    <path d="M 80 -95 A 60 60 0 0 1 120 -50" fill="none" stroke="#20C997" stroke-width="12" stroke-linecap="round" />
    
    <path d="M 95 -115 A 85 85 0 0 1 145 -55" fill="none" stroke="#0077FF" stroke-width="12" stroke-linecap="round" />

  </g>

  <g transform="translate(400, 420)">
    <text x="0" y="0" font-family="'Montserrat', 'Arial Black', sans-serif" font-weight="900" font-size="72" text-anchor="middle" letter-spacing="1">
      <tspan fill="#0F172A">CHATPRO</tspan><tspan fill="#2BAE57">365</tspan>
    </text>
  </g>
</svg>