<svg width="1200" height="630" viewBox="0 0 1200 630" fill="none" xmlns="http://www.w3.org/2000/svg">
<rect width="1200" height="630" fill="white"/>
<path d="M513 94.1846C484.662 99.6095 458.686 113.288 438.515 133.406C418.343 153.525 404.929 179.135 400.049 206.842C395.169 234.549 399.054 263.045 411.189 288.555C423.324 314.064 443.136 335.383 468 349.685" stroke="url(#paint0_linear_2968_18157)" stroke-width="18" stroke-linecap="round"/>
<path d="M468 349.705C484.533 360.032 503.081 366.921 522.48 369.937C541.879 372.954 561.709 372.034 580.725 367.236C599.741 362.437 617.532 353.863 632.982 342.053C648.431 330.242 661.204 315.45 670.5 298.605" stroke="url(#paint1_linear_2968_18157)" stroke-width="18" stroke-linecap="round"/>
<path d="M471 354.08L408 415.4L513 367.22L471 354.08Z" fill="#0CA678"/>
<path d="M490.5 240.2L535.5 284L625.5 152.6" stroke="url(#paint2_linear_2968_18157)" stroke-width="20" stroke-linecap="round" stroke-linejoin="round"/>
<path opacity="0.9" d="M520.5 269.386L565.5 313.186L655.5 181.786" stroke="url(#paint3_linear_2968_18157)" stroke-width="20" stroke-linecap="round" stroke-linejoin="round"/>
<path d="M640.5 123.416C651.893 124.914 662.466 130.01 670.596 137.923C678.725 145.836 683.961 156.127 685.5 167.216" stroke="#5BF55D" stroke-width="12" stroke-linecap="round"/>
<path d="M663 94.1846C678.062 99.0192 691.543 107.642 702.08 119.179C712.616 130.716 719.833 144.759 723 159.885" stroke="#20C997" stroke-width="12" stroke-linecap="round"/>
<path d="M685.5 65C704.285 72.7027 720.899 84.6771 733.949 99.9191C746.999 115.161 756.104 133.226 760.5 152.6" stroke="#0077FF" stroke-width="12" stroke-linecap="round"/>
<path d="M357.377 513.864C353.489 513.864 349.865 513.24 346.505 511.992C343.193 510.696 340.313 508.872 337.865 506.52C335.417 504.168 333.497 501.408 332.105 498.24C330.761 495.072 330.089 491.592 330.089 487.8C330.089 484.008 330.761 480.528 332.105 477.36C333.497 474.192 335.417 471.432 337.865 469.08C340.361 466.728 343.265 464.928 346.577 463.68C349.889 462.384 353.513 461.736 357.449 461.736C361.817 461.736 365.753 462.504 369.257 464.04C372.809 465.528 375.785 467.736 378.185 470.664L370.697 477.576C368.969 475.608 367.049 474.144 364.937 473.184C362.825 472.176 360.521 471.672 358.025 471.672C355.673 471.672 353.513 472.056 351.545 472.824C349.577 473.592 347.873 474.696 346.433 476.136C344.993 477.576 343.865 479.28 343.049 481.248C342.281 483.216 341.897 485.4 341.897 487.8C341.897 490.2 342.281 492.384 343.049 494.352C343.865 496.32 344.993 498.024 346.433 499.464C347.873 500.904 349.577 502.008 351.545 502.776C353.513 503.544 355.673 503.928 358.025 503.928C360.521 503.928 362.825 503.448 364.937 502.488C367.049 501.48 368.969 499.968 370.697 497.952L378.185 504.864C375.785 507.792 372.809 510.024 369.257 511.56C365.753 513.096 361.793 513.864 357.377 513.864ZM419.919 513V462.6H431.583V513H419.919ZM385.359 513V462.6H397.023V513H385.359ZM396.159 492.336V482.472H420.783V492.336H396.159ZM436.883 513L459.347 462.6H470.867L493.403 513H481.163L462.731 468.504H467.339L448.835 513H436.883ZM448.115 502.2L451.211 493.344H477.131L480.299 502.2H448.115ZM506.541 513V472.104H490.413V462.6H534.333V472.104H518.205V513H506.541ZM540.609 513V462.6H562.425C566.937 462.6 570.825 463.344 574.089 464.832C577.353 466.272 579.873 468.36 581.649 471.096C583.425 473.832 584.313 477.096 584.313 480.888C584.313 484.632 583.425 487.872 581.649 490.608C579.873 493.344 577.353 495.456 574.089 496.944C570.825 498.384 566.937 499.104 562.425 499.104H547.089L552.273 493.848V513H540.609ZM552.273 495.144L547.089 489.6H561.777C565.377 489.6 568.065 488.832 569.841 487.296C571.617 485.76 572.505 483.624 572.505 480.888C572.505 478.104 571.617 475.944 569.841 474.408C568.065 472.872 565.377 472.104 561.777 472.104H547.089L552.273 466.56V495.144ZM592.64 513V462.6H614.168C621.176 462.6 626.624 464.232 630.512 467.496C634.4 470.712 636.344 475.176 636.344 480.888C636.344 484.632 635.456 487.872 633.68 490.608C631.904 493.296 629.384 495.36 626.12 496.8C622.856 498.24 618.968 498.96 614.456 498.96H599.12L604.304 493.848V513H592.64ZM624.68 513L612.08 494.712H624.536L637.28 513H624.68ZM604.304 495.144L599.12 489.672H613.808C617.408 489.672 620.096 488.904 621.872 487.368C623.648 485.784 624.536 483.624 624.536 480.888C624.536 478.104 623.648 475.944 621.872 474.408C620.096 472.872 617.408 472.104 613.808 472.104H599.12L604.304 466.56V495.144ZM670.065 513.864C666.081 513.864 662.385 513.216 658.977 511.92C655.617 510.624 652.689 508.8 650.193 506.448C647.745 504.096 645.825 501.336 644.433 498.168C643.089 495 642.417 491.544 642.417 487.8C642.417 484.056 643.089 480.6 644.433 477.432C645.825 474.264 647.769 471.504 650.265 469.152C652.761 466.8 655.689 464.976 659.049 463.68C662.409 462.384 666.057 461.736 669.993 461.736C673.977 461.736 677.625 462.384 680.937 463.68C684.297 464.976 687.201 466.8 689.649 469.152C692.145 471.504 694.089 474.264 695.481 477.432C696.873 480.552 697.569 484.008 697.569 487.8C697.569 491.544 696.873 495.024 695.481 498.24C694.089 501.408 692.145 504.168 689.649 506.52C687.201 508.824 684.297 510.624 680.937 511.92C677.625 513.216 674.001 513.864 670.065 513.864ZM669.993 503.928C672.249 503.928 674.313 503.544 676.185 502.776C678.105 502.008 679.785 500.904 681.225 499.464C682.665 498.024 683.769 496.32 684.537 494.352C685.353 492.384 685.761 490.2 685.761 487.8C685.761 485.4 685.353 483.216 684.537 481.248C683.769 479.28 682.665 477.576 681.225 476.136C679.833 474.696 678.177 473.592 676.257 472.824C674.337 472.056 672.249 471.672 669.993 471.672C667.737 471.672 665.649 472.056 663.729 472.824C661.857 473.592 660.201 474.696 658.761 476.136C657.321 477.576 656.193 479.28 655.377 481.248C654.609 483.216 654.225 485.4 654.225 487.8C654.225 490.152 654.609 492.336 655.377 494.352C656.193 496.32 657.297 498.024 658.689 499.464C660.129 500.904 661.809 502.008 663.729 502.776C665.649 503.544 667.737 503.928 669.993 503.928Z" fill="#0F172A"/>
<path d="M718.597 513.864C715.093 513.864 711.613 513.408 708.157 512.496C704.701 511.536 701.773 510.192 699.373 508.464L703.909 499.536C705.829 500.928 708.061 502.032 710.605 502.848C713.149 503.664 715.717 504.072 718.309 504.072C721.237 504.072 723.541 503.496 725.221 502.344C726.901 501.192 727.741 499.608 727.741 497.592C727.741 495.672 726.997 494.16 725.509 493.056C724.021 491.952 721.621 491.4 718.309 491.4H712.981V483.696L727.021 467.784L728.317 471.96H701.893V462.6H737.173V470.16L723.205 486.072L717.301 482.688H720.685C726.877 482.688 731.557 484.08 734.725 486.864C737.893 489.648 739.477 493.224 739.477 497.592C739.477 500.424 738.733 503.088 737.245 505.584C735.757 508.032 733.477 510.024 730.405 511.56C727.333 513.096 723.397 513.864 718.597 513.864ZM767.399 513.864C762.791 513.864 758.783 512.904 755.375 510.984C752.015 509.064 749.423 506.256 747.599 502.56C745.775 498.864 744.863 494.304 744.863 488.88C744.863 483.072 745.943 478.152 748.103 474.12C750.311 470.088 753.335 467.016 757.175 464.904C761.063 462.792 765.527 461.736 770.567 461.736C773.255 461.736 775.823 462.024 778.271 462.6C780.719 463.176 782.831 464.04 784.607 465.192L780.287 473.76C778.895 472.8 777.407 472.152 775.823 471.816C774.239 471.432 772.583 471.24 770.855 471.24C766.487 471.24 763.031 472.56 760.487 475.2C757.943 477.84 756.671 481.752 756.671 486.936C756.671 487.8 756.671 488.76 756.671 489.816C756.719 490.872 756.863 491.928 757.103 492.984L753.863 489.96C754.775 488.088 755.951 486.528 757.391 485.28C758.831 483.984 760.535 483.024 762.503 482.4C764.519 481.728 766.727 481.392 769.127 481.392C772.391 481.392 775.319 482.04 777.911 483.336C780.503 484.632 782.567 486.456 784.103 488.808C785.687 491.16 786.479 493.92 786.479 497.088C786.479 500.496 785.615 503.472 783.887 506.016C782.207 508.512 779.927 510.456 777.047 511.848C774.215 513.192 770.999 513.864 767.399 513.864ZM766.751 505.152C768.383 505.152 769.823 504.864 771.071 504.288C772.367 503.664 773.375 502.776 774.095 501.624C774.815 500.472 775.175 499.152 775.175 497.664C775.175 495.36 774.383 493.536 772.799 492.192C771.263 490.8 769.199 490.104 766.607 490.104C764.879 490.104 763.367 490.44 762.071 491.112C760.775 491.736 759.743 492.624 758.975 493.776C758.255 494.88 757.895 496.176 757.895 497.664C757.895 499.104 758.255 500.4 758.975 501.552C759.695 502.656 760.703 503.544 761.999 504.216C763.295 504.84 764.879 505.152 766.751 505.152ZM807.842 513.864C804.338 513.864 800.858 513.408 797.402 512.496C793.994 511.536 791.066 510.192 788.618 508.464L793.226 499.536C795.146 500.928 797.354 502.032 799.85 502.848C802.394 503.664 804.962 504.072 807.554 504.072C810.482 504.072 812.786 503.496 814.466 502.344C816.146 501.192 816.986 499.584 816.986 497.52C816.986 496.224 816.65 495.072 815.978 494.064C815.306 493.056 814.106 492.288 812.378 491.76C810.698 491.232 808.322 490.968 805.25 490.968H792.362L794.954 462.6H825.698V471.96H799.13L805.178 466.632L803.378 486.864L797.33 481.536H807.986C812.978 481.536 816.986 482.232 820.01 483.624C823.082 484.968 825.314 486.816 826.706 489.168C828.098 491.52 828.794 494.184 828.794 497.16C828.794 500.136 828.05 502.896 826.562 505.44C825.074 507.936 822.77 509.976 819.65 511.56C816.578 513.096 812.642 513.864 807.842 513.864Z" fill="#2BAE57"/>
<defs>
<linearGradient id="paint0_linear_2968_18157" x1="398" y1="94.1846" x2="398" y2="349.685" gradientUnits="userSpaceOnUse">
<stop stop-color="#5BF55D"/>
<stop offset="1" stop-color="#0CA678"/>
</linearGradient>
<linearGradient id="paint1_linear_2968_18157" x1="468" y1="371.674" x2="514.657" y2="242.372" gradientUnits="userSpaceOnUse">
<stop stop-color="#0CA678"/>
<stop offset="1" stop-color="#0077FF"/>
</linearGradient>
<linearGradient id="paint2_linear_2968_18157" x1="490.5" y1="152.6" x2="621.852" y2="287.55" gradientUnits="userSpaceOnUse">
<stop stop-color="#73F26D"/>
<stop offset="1" stop-color="#20C997"/>
</linearGradient>
<linearGradient id="paint3_linear_2968_18157" x1="520.5" y1="181.786" x2="651.852" y2="316.737" gradientUnits="userSpaceOnUse">
<stop stop-color="#20C997"/>
<stop offset="1" stop-color="#0077FF"/>
</linearGradient>
</defs>
</svg>
